<svg id="Layer_1" data-name="Layer 1" xmlns="http://www.w3.org/2000/svg" viewBox="0 0 235.51 197.47"><defs><style>.cls-1{fill:#fff;}</style></defs><title>estore basket outline</title><path class="cls-1" d="M227.1,115.32a4.19,4.19,0,0,1-1-.14l-109-29.33a4.16,4.16,0,0,1-1.58-.84L31.82,12.49A4,4,0,0,1,35.48,5.6l109,29.33a4.16,4.16,0,0,1,1.58.84l83.66,72.52a4,4,0,0,1-2.62,7ZM120,78.36l91.29,24.57L141.51,42.42,50.22,17.85Z"/><polygon class="cls-1" points="16.69 41.8 125.69 71.13 140.69 39.8 31.69 10.46 16.69 41.8"/><path class="cls-1" d="M125.69,73.13a1.86,1.86,0,0,1-.52-.07l-109-29.33a2,2,0,0,1-1.29-2.8l15-31.33a2,2,0,0,1,2.33-1.07l109,29.34A2,2,0,0,1,142.5,39a2,2,0,0,1,0,1.7L127.49,72A2,2,0,0,1,125.69,73.13ZM19.53,40.49,124.6,68.77,137.84,41.1,32.77,12.83Z"/><path class="cls-1" d="M92.75,139.31a4.07,4.07,0,0,1-1-.14L8.06,116.66a4,4,0,0,1-3-3.86v-1.32a4,4,0,0,1,3-3.86l109-29.33a4,4,0,0,1,5,3.86v46.33a4,4,0,0,1-3,3.87l-25.35,6.82A4.07,4.07,0,0,1,92.75,139.31ZM22.06,112.14l70.69,19,21.35-5.74v-38Z"/><path class="cls-1" d="M143.46,139.31a4.07,4.07,0,0,1-1-.14l-25.36-6.82a4,4,0,0,1-3-3.87V82.15a4,4,0,0,1,5-3.86l109,29.33a4,4,0,0,1,3,3.86v1.32a4,4,0,0,1-3,3.86l-83.65,22.51A3.94,3.94,0,0,1,143.46,139.31ZM122.1,125.42l21.36,5.74,70.69-19L122.1,87.37Z"/><polygon class="cls-1" points="227.1 159.13 118.1 188.46 118.1 142.13 227.1 112.8 227.1 159.13"/><path class="cls-1" d="M118.1,193a4.51,4.51,0,0,1-4.5-4.5V142.13a4.51,4.51,0,0,1,3.33-4.35l109-29.33a4.49,4.49,0,0,1,5.67,4.35v46.33a4.5,4.5,0,0,1-3.33,4.35l-109,29.33A4.64,4.64,0,0,1,118.1,193Zm4.5-47.38v37l100-26.91v-37Zm104.5,13.55h0Z"/><polygon class="cls-1" points="9.1 159.13 118.1 188.46 118.1 142.13 9.1 112.8 9.1 159.13"/><path class="cls-1" d="M118.1,193a4.69,4.69,0,0,1-1.17-.15l-109-29.33a4.51,4.51,0,0,1-3.33-4.35V112.8a4.5,4.5,0,0,1,5.67-4.35l109,29.33a4.5,4.5,0,0,1,3.33,4.35v46.33a4.5,4.5,0,0,1-4.5,4.5ZM13.6,155.68l100,26.91v-37l-100-26.91Z"/></svg>