<?xml version="1.0" encoding="utf-8"?>
<!-- Generator: Adobe Illustrator 24.1.2, SVG Export Plug-In . SVG Version: 6.00 Build 0)  -->
<svg version="1.1" id="Layer_1" xmlns="http://www.w3.org/2000/svg" xmlns:xlink="http://www.w3.org/1999/xlink" x="0px" y="0px"
	 viewBox="0 0 425.2 283.5" style="enable-background:new 0 0 425.2 283.5;" xml:space="preserve">
<style type="text/css">
	.st0{opacity:0.99;fill:url(#path4514_1_);enable-background:new    ;}
	.st1{opacity:0.99;fill:url(#path4516_1_);enable-background:new    ;}
	.st2{opacity:0.99;fill:url(#path4518_1_);enable-background:new    ;}
	.st3{opacity:0.99;fill:url(#path4520_1_);enable-background:new    ;}
	.st4{opacity:0.99;fill:url(#path4548_1_);enable-background:new    ;}
	.st5{opacity:0.99;fill:url(#path4550_1_);enable-background:new    ;}
	.st6{opacity:0.99;fill:url(#path4552_1_);enable-background:new    ;}
	.st7{opacity:0.99;fill:url(#path4554_1_);enable-background:new    ;}
	.st8{fill:url(#SVGID_1_);}
	.st9{fill:url(#SVGID_2_);}
	.st10{fill:url(#SVGID_3_);}
	.st11{fill:url(#SVGID_4_);}
	.st12{fill:#92D5DA;stroke:#92D5DA;stroke-miterlimit:10;}
</style>
<g>
	<g>
		<g id="g4572_28_" transform="translate(-41.202013,274.56465)">
			<g id="g4526_28_" transform="matrix(1.9199374,0,0,1.9150649,569.72257,72.180962)">
				
					<linearGradient id="path4514_1_" gradientUnits="userSpaceOnUse" x1="-479.8897" y1="-61.1605" x2="-479.8897" y2="137.0401" gradientTransform="matrix(3.6861 0 0 3.6675 1543.2277 57.9085)">
					<stop  offset="0" style="stop-color:#F1CFCE"/>
					<stop  offset="0.348" style="stop-color:#F0D1CF"/>
					<stop  offset="0.5851" style="stop-color:#EAD5D4"/>
					<stop  offset="0.7892" style="stop-color:#E1DDDB"/>
					<stop  offset="0.9736" style="stop-color:#D3E8E6"/>
					<stop  offset="1" style="stop-color:#D0EBE9"/>
				</linearGradient>
				<path id="path4514_28_" class="st0" d="M-242.8-63c-5.8-0.1-6.8-0.1-7.7-0.5c-2.4-0.9-4.5-3.1-5.4-5.5c-0.3-1-0.8-2.8-2.1-9.5
					c-1.1-5.6-1.5-7.6-1.9-9.2c-0.2-0.9-0.4-2-0.4-2.3c-0.1-0.7-0.3-0.8-1.8-1.1c-1.5-0.3-2.4-0.7-3.9-1.8c-4.3-3.4-4.2-10,0.1-13.7
					c1.6-1.3,2.8-1.7,5.5-1.8c1.2,0,2.3-0.1,2.3-0.2s-0.4-0.6-0.9-1.3c-2.1-2.9-2.3-6.8-0.5-9.8c0.8-1.3,2-2.4,3.5-3.2
					c1.5-0.8,2.8-1.1,5.2-1.1c1,0,1.9,0,1.9-0.1s-0.4-0.6-0.8-1.2c-0.9-1.1-1.1-1.7-1.5-3.3c-0.4-1.6-0.3-2.8,0.2-4.6
					c0.8-2.6,2.4-4.3,4.9-5.5l1.1-0.5l6.4-0.1c3.8,0,6.4-0.1,6.4-0.3c0-0.1-0.3-0.5-0.6-0.8c-1.3-1.4-2.2-3.8-2.2-6
					c0-3.7,1.9-6.8,5.3-8.5c0.8-0.4,1.8-0.8,2.3-0.9c0.9-0.1,0.9-0.2,0.4-1.9c-0.9-2.9-2.9-4.9-6.4-6.3c-0.3-0.1-1.1-0.3-1.7-0.3
					c-1.6-0.2-2.1-0.4-2.1-1.2c0-0.4,0.1-0.7,0.3-0.8c0.1-0.1,1-0.1,1.9-0.1c1.9,0.1,3.6,0.6,5.4,1.8c2.3,1.5,4.4,4.5,4.9,7.1
					c0.3,1.5,0.5,1.9,1.1,1.9c0.9,0,3.4,1.4,4.6,2.6c2.1,2.1,2.8,4.3,2.6,7.6c-0.1,1.9-0.7,3.2-2,4.9l-0.8,1.1l6.4,0.1l6.4,0.1
					l1.5,0.8c1.7,0.8,3,2.1,3.9,3.7c1.4,2.5,1.5,5.4,0.2,8c-0.4,0.8-1,1.7-1.2,2c-0.3,0.3-0.5,0.5-0.5,0.6s0.9,0.2,1.9,0.2
					c2.3,0,3.7,0.3,5.2,1c1.6,0.7,3.3,2.5,4.1,4.2c0.6,1.3,0.7,1.5,0.7,3.7c0,2.3,0,2.3-0.8,3.9c-0.4,0.8-1,1.7-1.3,2
					s-0.5,0.5-0.5,0.6s0.9,0.2,2,0.2c4,0,6.6,1.6,8.4,5.1c0.6,1.2,0.6,1.3,0.6,3.7c0,2.3,0,2.5-0.7,3.8c-1.5,2.9-3.7,4.5-6.8,5
					c-0.9,0.1-1,0.2-1.2,0.7c-0.1,0.5-1,4.4-2,9.5c-0.2,1-0.5,2.5-0.7,3.3s-0.4,1.9-0.5,2.4c-1,5.1-1.4,6.5-2.3,7.8
					c-0.8,1.2-2.6,2.8-3.6,3.3c-2.1,0.9-1.5,0.9-19.4,0.9C-228.4-62.9-239.1-62.9-242.8-63L-242.8-63z M-241.4-65.1
					c0.2-0.1,0.3-0.4,0.2-1.5c-0.1-1.3-0.1-1.4,0.4-1.7c0.6-0.4,0.8-0.4,1.4,0c0.3,0.3,0.5,0.7,0.6,1.8l0.1,1.4h6h6l0.1-1.5
					c0.1-1.2,0.2-1.5,0.5-1.8c0.5-0.3,0.8-0.4,1.3-0.1c0.3,0.2,0.4,0.4,0.4,1.6c0,0.9,0.1,1.5,0.3,1.6c0.2,0.2,1.9,0.2,6.1,0.2
					l5.8-0.1l0.1-1.3c0.2-2,0.9-2.7,2-1.9c0.4,0.3,0.5,0.4,0.4,1.6c-0.1,0.7-0.1,1.3,0,1.5s0.9,0.3,3,0.2c3.2,0,5.2-0.3,6.5-1.1
					c1-0.6,2.4-2.2,2.9-3.1c0.3-0.7,0.9-3.1,1.4-5.8c0.4-1.8,1.8-8.8,2.5-11.9c0.3-1.3,0.6-2.8,0.6-3.2l0.1-0.8l-7.2,0.1l-7.2,0.1
					l-0.1,1.4c-0.1,1.1-0.2,1.5-0.6,1.8c-0.6,0.5-0.8,0.5-1.4-0.1c-0.4-0.4-0.5-0.6-0.4-1.6c0-0.6,0-1.3,0-1.4
					c0-0.2-1.6-0.3-7.2-0.3c-8.1,0-7.4-0.2-7.4,1.8c0,1.3-0.5,2-1.2,1.7c-0.7-0.2-1-0.8-1.1-2.1l-0.1-1.3h-7.2h-7.2l0.1,1.3
					c0.1,1.2,0,1.4-0.4,1.8c-0.3,0.3-0.6,0.4-0.9,0.3c-0.7-0.2-0.9-0.5-1.1-2l-0.2-1.4l-7.1-0.1c-4,0-7.1,0-7.2,0.1
					c-0.2,0.2-0.1,0.8,0.8,4.8c0.3,1.2,0.6,2.8,0.7,3.4c0.4,2.1,1.2,6,1.5,7.3c0.2,0.7,0.4,2,0.6,3c0.7,4,2.4,6,5.9,6.9
					C-247.4-65-241.9-64.9-241.4-65.1L-241.4-65.1z M-188.1-93.6c2.7-1.2,4.1-3.7,3.9-6.5c-0.2-2.4-1.6-4.4-3.8-5.5l-1.1-0.5
					l-23.5-0.1c-25.2-0.1-24.2-0.1-24.2-1.1c0-0.2,0.2-0.6,0.3-0.8c0.3-0.4,1.2-0.4,19-0.4c19.6,0,19.7,0,21.4-0.9
					c1-0.5,2.3-1.9,2.8-3c1.5-3.1,0.1-7.1-3.1-8.7c-1.3-0.6-3-0.8-9.9-0.7c-6.7,0-6.8,0-7.2-0.4c-0.4-0.5-0.3-1.2,0.2-1.6
					c0.2-0.2,1.2-0.3,3.1-0.3c3.6,0,5-0.5,6.5-2.2c1.3-1.4,1.9-3.6,1.6-5.5c-0.2-1.4-1.2-3-2.3-3.9c-2-1.6-0.2-1.5-21.1-1.5h-18.7
					l-1.1,0.6c-2.6,1.4-3.8,3.5-3.6,6.3c0.2,2.2,1,3.7,2.7,4.9c1.8,1.2,1.7,1.2,13.4,1.2c10.5,0,10.7,0,11.1,0.4
					c0.5,0.5,0.5,1,0,1.5c-0.3,0.3-1.7,0.3-15.3,0.3c-15.6,0-16.4,0-18.1,0.9c-1.8,0.9-3.2,3.3-3.3,5.5c0,1.8,0.3,3,1.2,4.2
					c1.6,2.1,3.4,2.7,8.2,2.7c3.2,0,3.3,0,3.6,0.4c0.4,0.6,0.4,0.8,0,1.3c-0.3,0.4-0.6,0.4-8.5,0.5l-8.2,0.1l-1.1,0.5
					c-4.2,2-5.1,7.5-1.8,10.6c0.5,0.5,1.1,0.9,1.4,1.1c1.4,0.8,1.2,0.8,38.3,0.7h36L-188.1-93.6z M-222.6-140
					c1.4-0.6,2.9-2.1,3.6-3.5c0.4-0.9,0.5-1.3,0.5-3s-0.1-2.2-0.4-2.9c-0.7-1.4-1.8-2.5-3.3-3.4c-1.3-0.7-1.4-0.8-3.2-0.8
					c-1.6,0-2,0.1-3,0.6c-2.3,1.1-3.8,3.3-4.1,5.6c-0.1,1.3,0.2,3.2,0.7,4.2c0.8,1.6,2.9,3.1,4.9,3.7
					C-225.8-139.2-223.8-139.4-222.6-140z"/>
				
					<linearGradient id="path4516_1_" gradientUnits="userSpaceOnUse" x1="-479.8659" y1="-38.3009" x2="-479.8659" y2="-20.5363" gradientTransform="matrix(3.6861 0 0 3.6675 1543.2277 57.9085)">
					<stop  offset="0" style="stop-color:#F1CFCE"/>
					<stop  offset="0.348" style="stop-color:#F0D1CF"/>
					<stop  offset="0.5851" style="stop-color:#EAD5D4"/>
					<stop  offset="0.7892" style="stop-color:#E1DDDB"/>
					<stop  offset="0.9736" style="stop-color:#D3E8E6"/>
					<stop  offset="1" style="stop-color:#D0EBE9"/>
				</linearGradient>
				<path id="path4516_28_" class="st1" d="M-226.3-73.7c-0.4-0.4-0.4-0.7-0.4-4.2c0-3.1,0.1-3.9,0.3-4.2c0.4-0.5,1.3-0.6,1.7-0.2
					c0.1,0.2,0.2,1.7,0.2,4.4c0,3.7,0,4.1-0.3,4.4C-225.3-73.2-225.8-73.2-226.3-73.7L-226.3-73.7z"/>
				
					<linearGradient id="path4518_1_" gradientUnits="userSpaceOnUse" x1="-475.5966" y1="-38.3005" x2="-475.5966" y2="-20.4837" gradientTransform="matrix(3.6861 0 0 3.6675 1543.2277 57.9085)">
					<stop  offset="0" style="stop-color:#F1CFCE"/>
					<stop  offset="0.348" style="stop-color:#F0D1CF"/>
					<stop  offset="0.5851" style="stop-color:#EAD5D4"/>
					<stop  offset="0.7892" style="stop-color:#E1DDDB"/>
					<stop  offset="0.9736" style="stop-color:#D3E8E6"/>
					<stop  offset="1" style="stop-color:#D0EBE9"/>
				</linearGradient>
				<path id="path4518_28_" class="st2" d="M-210.8-73.5c-0.5-0.4-0.6-0.9-0.4-2.8c0.1-1,0.2-2.2,0.3-2.6c0.3-3,0.5-3.6,1.3-3.6
					c0.3,0,0.7,0.2,0.9,0.4c0.4,0.4,0.4,0.2-0.3,6.5C-209.1-73.6-209.8-72.8-210.8-73.5z"/>
				
					<linearGradient id="path4520_1_" gradientUnits="userSpaceOnUse" x1="-484.059" y1="-38.2998" x2="-484.059" y2="-20.5587" gradientTransform="matrix(3.6861 0 0 3.6675 1543.2277 57.9085)">
					<stop  offset="0" style="stop-color:#F1CFCE"/>
					<stop  offset="0.348" style="stop-color:#F0D1CF"/>
					<stop  offset="0.5851" style="stop-color:#EAD5D4"/>
					<stop  offset="0.7892" style="stop-color:#E1DDDB"/>
					<stop  offset="0.9736" style="stop-color:#D3E8E6"/>
					<stop  offset="1" style="stop-color:#D0EBE9"/>
				</linearGradient>
				<path id="path4520_28_" class="st3" d="M-241.6-73.8c-0.2-0.3-0.4-0.8-0.4-1.1c0-0.3-0.1-1.9-0.3-3.7c-0.2-2.7-0.2-3.2,0-3.6
					c0.5-0.8,1.8-0.5,2,0.5c0.1,0.3,0.2,1.7,0.3,3.2c0.1,1.4,0.3,3,0.3,3.5c0.1,0.7,0,0.9-0.3,1.3
					C-240.6-73.1-241.1-73.2-241.6-73.8z"/>
			</g>
			<g id="g4560_28_">
				
					<linearGradient id="path4548_1_" gradientUnits="userSpaceOnUse" x1="219.204" y1="-246.252" x2="219.204" y2="-48.874" gradientTransform="matrix(1 0 0 1 -82.404 -3.242493e-05)">
					<stop  offset="0" style="stop-color:#E29EC6"/>
					<stop  offset="0.1553" style="stop-color:#DFA1C6"/>
					<stop  offset="0.3585" style="stop-color:#D5AAC9"/>
					<stop  offset="0.5884" style="stop-color:#C5B8CF"/>
					<stop  offset="0.8359" style="stop-color:#ABC8D5"/>
					<stop  offset="1" style="stop-color:#92D5DA"/>
				</linearGradient>
				<path id="path4548_28_" class="st4" d="M89.9-49.3c-4.8-1.2-9.7-6.1-11.3-11.4c-0.4-1.4-2.6-11.1-4.8-21.6l-4-19.1l-3.6-1
					c-8.3-2.3-12.9-8-12.9-16c0-4.6,1.8-9,5-12.2c2.8-2.8,5.9-4.1,11.1-4.5c2.3-0.2,4.4-0.5,4.5-0.6s-0.5-1.4-1.5-2.9
					c-3.5-5.2-3.8-12.1-0.9-17.5c3-5.5,8.1-8.4,15.9-8.9c4.9-0.3,4.9-0.4,4-1.5c-1.7-2.2-3.6-6.9-4-9.5c-0.8-5.8,3.1-13.1,8.8-16.4
					c2.6-1.5,2.8-1.6,15-1.9c6.8-0.2,12.6-0.5,12.8-0.7c0.2-0.2-0.4-1.4-1.4-2.6c-3.3-4.1-4.4-11.4-2.5-16.9c1.2-3.6,5.1-7.8,9-9.7
					c1.7-0.9,3.5-1.5,4-1.5c1.7,0,2-1.3,1.1-4c-2.3-6.8-8.3-11.7-15.7-12.8c-2.9-0.4-4.1-1.4-3.5-2.9c0.3-0.9,0.9-1,4.2-0.7
					c9.1,0.6,16.4,6.9,19.2,16.4c1,3.4,1.2,3.7,3.4,4.3c11.6,3.4,16.5,17.8,9.4,27.6c-0.9,1.3-1.7,2.6-1.7,2.9c0,0.4,4.3,0.6,12,0.6
					c11.6,0,12.1,0,14.8,1.4c4.2,2.1,6.1,4,8,7.9c2.4,4.8,2.4,9.5,0.1,14.5c-0.9,1.9-1.9,3.7-2.3,3.9c-1.4,0.9-0.4,1.3,4.2,1.6
					c6.2,0.4,9.8,2,13.2,5.6c3.5,3.7,4.3,5.8,4.3,11.4c0,3.7-0.3,5.1-1.4,7.3c-0.8,1.5-1.8,3.1-2.3,3.5c-1.5,1.3-1,1.6,3.2,2
					c6,0.6,8.2,1.4,11.3,4.2c4,3.6,5.7,7.4,5.7,12.4c0,8.3-4.8,14.4-12.8,16.3c-1.6,0.4-3.1,0.9-3.3,1.1s-2.3,9.4-4.6,20.3
					c-2.3,11-4.6,20.9-5.1,22c-1.2,2.8-5.2,7.1-8.1,8.6C184-49,184-49,138-48.9C111.9-48.8,91.1-49,89.9-49.3L89.9-49.3z
					 M106.6-55.2c0.5-5.2,3.7-4.9,4.3,0.3l0.4,2.8l11.5-0.2l11.5-0.2l0.3-2.7c0.3-3,1.1-4.1,2.6-3.8c0.8,0.2,1.1,0.8,1.2,2.9
					c0.1,1.5,0.5,2.9,0.9,3.3c0.5,0.4,4.4,0.6,11.8,0.5l11.1-0.2l0.4-2.8c0.5-3.2,1-4,2.6-3.7c0.8,0.2,1.1,0.9,1.3,3.3l0.3,3.1h6.9
					c5.2,0,7.5-0.3,9.6-1c3.2-1.2,7-5.2,7.9-8.3c0.9-3.3,8-37.6,8-38.9c0-1.1-0.4-1.1-14-1.1h-14v2.2c0,1.3-0.4,2.8-1.1,3.6
					c-1.1,1.3-1.1,1.3-2.3,0.3c-0.9-0.8-1.2-1.8-1.2-3.6v-2.5h-13.1c-7.2,0-13.5,0.2-14,0.3c-0.6,0.2-0.9,1-0.9,2.3
					c0,2.1-0.8,4.2-1.7,4.2c-1.3,0-2.3-1.9-2.3-4.3v-2.5h-14h-14v2.7c0,2.5-0.7,4.1-1.8,4.1c-1,0-2.2-1.9-2.2-3.6
					c0-3.3,0.3-3.3-14.6-3.1l-13.7,0.2l0.2,1.7c0.1,0.9,1.8,9.7,3.9,19.4c4.2,20.3,5.2,22.9,9.4,25.5c3.3,2,6.4,2.6,13.1,2.5
					l5.4-0.1L106.6-55.2z M207.9-106.6c10.4-4.3,11.2-18.3,1.4-23.3c-2.1-1.1-3.9-1.1-47.8-1.5c-25.1-0.2-45.8-0.6-46-0.8
					s-0.2-0.9,0-1.5c0.3-1,1.2-1.1,9.9-1.5c5.2-0.2,21.6-0.4,36.4-0.4c17.7,0,27.7-0.2,29.2-0.6c9.3-2.5,12.1-14.5,5-21.2
					c-3.4-3.2-4.9-3.5-21-3.8c-13.9-0.3-14.9-0.4-15-1.4c-0.4-1.9,0.9-2.3,7.6-2.7c6-0.3,6.8-0.5,9-2c4.8-3.3,6.8-10.3,4.5-15.4
					c-1.2-2.6-4.2-5.8-6.4-6.8c-1-0.5-11.9-0.7-37.7-0.8l-36.3-0.2l-3.1,2.2c-3.9,2.7-5.7,6-5.7,10.3c0,5,2,8.5,6.3,11.2
					c1.9,1.2,2.6,1.3,23.5,1.5c19.3,0.3,21.6,0.4,22.5,1.3c0.8,0.8,0.8,1.1,0.2,1.9c-0.6,0.8-4,0.9-26.8,0.9
					c-31.6,0-35.2,0.3-38.5,2.6c-3.4,2.4-5.3,6.4-5.2,10.8c0.1,4.1,1,6.2,4.2,9c2.9,2.6,5.3,3.3,12.1,3.3c7.2,0.1,8.8,0.5,9,2.1
					c0.1,0.9-0.2,1.3-1.1,1.5c-0.7,0.1-8.1,0.4-16.3,0.6c-17,0.3-17.5,0.4-21.3,4.8c-5.2,5.9-3.8,14.3,3.3,18.9
					c2.3,1.5,8.3,1.6,78.5,1.7C195.3-105.8,206.4-105.9,207.9-106.6z M139.2-194.9c3.8-0.7,7.1-3,9.2-6.2c1.4-2.2,1.6-3.1,1.6-7.2
					c0-4.1-0.2-4.9-1.6-7.2c-0.9-1.5-2.9-3.4-4.6-4.5c-2.8-1.8-3.2-1.9-7.5-1.7c-4,0.2-4.8,0.4-7,2c-4.9,3.5-7.1,9.2-5.7,14.9
					c1.1,4.6,4.3,7.7,9.7,9.7C136-194.2,135.6-194.2,139.2-194.9L139.2-194.9z"/>
				
					<linearGradient id="path4550_1_" gradientUnits="userSpaceOnUse" x1="219.0032" y1="-85.7969" x2="219.0032" y2="-68.1798" gradientTransform="matrix(1 0 0 1 -82.404 -3.242493e-05)">
					<stop  offset="0" style="stop-color:#464547"/>
					<stop  offset="1" style="stop-color:#000000"/>
				</linearGradient>
				<path id="path4550_28_" class="st5" d="M135.5-69c-0.7-0.7-0.9-2.3-0.9-7.7c0-3.8,0.3-7.3,0.6-8c0.8-1.5,2.6-1.4,3,0.2
					c0.7,2.5,0.4,15-0.3,15.7C137-67.9,136.6-67.9,135.5-69z"/>
				
					<linearGradient id="path4552_1_" gradientUnits="userSpaceOnUse" x1="249.2217" y1="-85.7459" x2="249.2217" y2="-68.4559" gradientTransform="matrix(1 0 0 1 -82.404 -3.242493e-05)">
					<stop  offset="0" style="stop-color:#464547"/>
					<stop  offset="1" style="stop-color:#000000"/>
				</linearGradient>
				<path id="path4552_28_" class="st6" d="M165.2-68.9c-1.1-0.8-1.1-1.1-0.4-7.9c0.8-7.5,1.3-9.3,2.8-9c1.8,0.4,2.1,1.8,1.3,8.7
					C168.1-69.5,167.2-67.5,165.2-68.9z"/>
				
					<linearGradient id="path4554_1_" gradientUnits="userSpaceOnUse" x1="189.1946" y1="-85.8032" x2="189.1946" y2="-68.4535" gradientTransform="matrix(1 0 0 1 -82.404 -3.242493e-05)">
					<stop  offset="0" style="stop-color:#464547"/>
					<stop  offset="1" style="stop-color:#000000"/>
				</linearGradient>
				<path id="path4554_28_" class="st7" d="M106.3-68.9c-0.8-0.6-1.1-2.1-1.6-7.9c-0.3-3.9-0.4-7.6-0.2-8.1c0.5-1.4,2.6-1.1,3.2,0.4
					c0.7,1.6,1.8,13.8,1.4,14.9C108.7-68.4,107.5-68.1,106.3-68.9z"/>
			</g>
		</g>
	</g>
</g>
<g>
	
		<linearGradient id="SVGID_1_" gradientUnits="userSpaceOnUse" x1="216.15" y1="142.1" x2="216.15" y2="226.8" gradientTransform="matrix(1 0 0 1 0 3.051758e-05)">
		<stop  offset="0" style="stop-color:#4D4D4F"/>
		<stop  offset="7.797956e-02" style="stop-color:#4A4A4C"/>
		<stop  offset="0.5241" style="stop-color:#3F3F40"/>
		<stop  offset="1" style="stop-color:#383839"/>
	</linearGradient>
	<path class="st8" d="M209.2,223.7c-0.1-2.5-0.5-14.5-0.5-17.1c0-20.8,1-41.4,1-62.1h-1.9c-1.7,0-8.6,7.7-11.6,10.5
		c-0.1,0-0.2,0.1-0.4,0.1s-0.6,0-0.9-0.5v-0.9c0-2.7-0.7-5.2-0.7-8c0-3.1,3.2-3.1,5.7-3.1c1.6,0,3.1,0.1,4.5,0.1
		c3.7,0,6.5-0.6,16.7-0.6c5,0,13.1,0.4,14.2,0.6c0,0,0.5-0.1,1.1-0.1c0.5,0,1.6,2.1,1.7,2.2v0.5c0-0.6-2.7,8.4-3.4,8.4
		c-2.1,0-4.1-3.9-5.5-5c-2.1-1.5-4-2.4-5.4-4.2c-0.5,0-3.2-0.1-3.9-0.1h-1.5c-1.4,0-3,0-4.4,0.5v0.6c0,6.2,1.5,12.3,2.1,18.3
		c0.9,9.9,1.6,17.3,2.9,29.1v0.9c0.9,10.7,2.7,25.4,2.7,29.4c0,2.4-4.9,1.9-6.4,2.2c-1,0.1-1.2,1.4-2.2,1.4c-0.7,0-0.4-1.4-1.4-1.4
		h-1.9c-0.6,0-1.4,0-1.5-0.7C208.7,224.4,208.9,223.8,209.2,223.7z M196.6,145.3l0.4,3.4l3.7-3.9c-0.4,0-1.4-0.1-1.6-0.1
		C197.6,144.7,196.6,145,196.6,145.3z M197.2,151.2c1.4,0,5.2-4.4,6.6-6.4l-0.4-0.1c-0.5,0-0.9,0.1-1.1,0.6l-4.5,5h-1.2
		C196.6,150.8,197.2,151.2,197.2,151.2z M210.5,207.3h0.6c1.7-2.5,4.5-5.5,6.4-7.5v-3.5C215.9,198,210.5,204.3,210.5,207.3z
		 M210.7,201.6h0.5c0.7,0,2.6-3.2,3.1-3.9c1.6-1.7,3-2.9,3-4.6c0-1.2-0.2-2.6-0.6-2.6c-0.6,0-3.7,5.6-5.5,7.2L210.7,201.6z
		 M210.7,213.6h0.5c1.7-2.4,7.2-7.4,7.2-9.2c0-0.5,0-2.7-0.4-2.7h-0.5l-6.9,8.9L210.7,213.6L210.7,213.6z M213.5,213.1
		c-0.7,1.2-2.9,4-2.9,4.1v3.4c0.6-0.4,8.1-8.6,8.1-9.7v-3.6C216.9,207.2,213.9,212.6,213.5,213.1z M211,223.5c0.6,0,8.6-1.4,8.6-6
		c0-0.7-0.4-4-0.6-4C217.4,214.3,211,221.8,211,223.5z M211.4,174.6c0.2-0.5,3.9-2.9,3.9-4.7c0-0.2-0.2-2.6-0.7-2.6
		c-1.1,0-3.4,4.6-3.4,7L211.4,174.6z M211.2,180.1c0,0.4,0,0.9,0.4,0.9l4.1-5.4v-0.9c0-0.7,0-1.5-0.5-2.2c-1.4,1.4-4,4.9-4,6.9
		V180.1z M211.5,188.1c1.2-2,4.5-4.7,4.5-7.4c0-0.9,0-1.6-0.4-2.5c-1.5,2-2.7,4.2-4.5,5.7L211.5,188.1z M211.2,195.1
		c0.2-0.7,1.9-3,2.4-3.6c0.7-1,3.1-2,3.1-3.1c0-2.5-0.4-3.5-0.6-3.9c-2.1,1.6-3,4.9-4.9,6.6V195.1z M212,154.9c0.6-0.5,1-1.4,1-2.4
		c0-2.6,0-5.5-0.7-8.1l-0.2,0.4c-0.2,0-0.6,7.7-0.6,7.4C211.4,153.3,211.4,153.9,212,154.9z M211.4,166.7c0,0.2,0.1,1.2,0.4,1.2
		c1.4-1.4,2.7-2.7,2.7-5c0-0.2-0.1-1.1-0.2-1.2l-0.4-0.5C212.3,162.4,211.4,164.5,211.4,166.7z M211.9,159.7c0,0.2,0.1,1.2,0.1,1.5
		c0.2-0.2,1.7-1.9,1.9-2.1V158c0-0.7,0-1.6-0.4-2.1C212.3,156.7,211.9,158.3,211.9,159.7z M218.3,222.8l1.9-0.4c0-0.5,0-1.2-0.5-1.4
		C219,221.7,218.3,222.5,218.3,222.8z M229.7,146.2c0,0,1.7-0.9,2.4-1.7h-5.2C227.5,145.2,229.6,146.2,229.7,146.2z M233,149.2
		c0.4-1.9,1.9-3.2,3.5-3.9c0-0.5-0.5-0.6-0.7-0.6c-1.4,0-3.7,1.2-4.4,2.9C231.4,148.5,232.6,148.7,233,149.2z M234,150.2
		c0.1,0,0.5-0.7,0.5-1l-1.2,0.5C233.4,149.8,233.7,150.2,234,150.2z"/>
	<linearGradient id="SVGID_2_" gradientUnits="userSpaceOnUse" x1="270.35" y1="137.8" x2="270.35" y2="226.9">
		<stop  offset="0" style="stop-color:#D073AE"/>
		<stop  offset="1" style="stop-color:#5FBFE7"/>
	</linearGradient>
	<path class="st9" d="M249.8,185.5c-0.1-0.2-0.1-0.5-0.1-0.9c0-0.6,0.1-1.1,0.5-1.6c3.9-12.6,7-24.8,9.6-37.8
		c0.4-1.9-0.4-7.4,3.2-7.4c1.5,0,2.5,3.4,2.5,3.7l13,25.2l8.2,23.7c0.9,4.7,4.5,10.4,4.6,13.8c0.1,0,2.6,7.4,3.2,7.4l0.5,0.5
		c0,2.5,5.4,8.2,5.4,13c0,0.4-0.1,0.5-0.6,0.6c-1.5,0-1.2-1.9-2.2-2.4c-2.1,1.2-4.1,1.6-6.6,1.6c-1.7,0-3.7-17-4.2-21.2
		c-3.2,0-30.6,1.9-31.2,3.2c-0.2,1.6-0.4,3.5-0.4,5.1c0,1,0.9,1.1,0.9,1.7c0,0.2-1.4,2.1-1.4,2.6c0,0.4,0.9,0.4,0.9,0.9
		s-0.7,1.6-0.7,2.2c-0.5,1.6-0.2,3.4-1,4.9c-0.6,1.4-10.9,2.6-11.2,2.6c-1,0-1.4-0.1-2.4-0.9C243.5,212.8,246.6,199.2,249.8,185.5z
		 M242.7,223.8c3.5-2.5,10.5-8.6,10.5-10.2c0-0.1-0.1-0.9-0.1-1C249.2,216.1,243.1,222.5,242.7,223.8z M251.8,209.6l-7.9,7.9
		c-0.2,0.2-0.5,2-0.5,2.2l6.7-6.2c1.4-1.2,3.5-1.2,3.5-4.2C252.9,209.2,252.1,209.6,251.8,209.6z M244,225c2.6,0,8.6-5,8.6-6.4v-1.5
		C249.7,218.7,246.1,222.7,244,225z M244.7,213.8h0.5c0.9-1.6,8.7-5.7,8.7-9.2c0-0.1-0.1-1-0.1-1.2l-8.2,8.4L244.7,213.8z
		 M246.1,209.2l5.7-5.9c2.1-0.4,2.5-2.6,2.5-4.5C251.2,201.3,246.7,205.2,246.1,209.2z M247.3,203.3l0.7-0.2l6.2-6.4
		c0.2-0.2,0.5-2.4,0.5-2.9C252.1,196.5,247.3,198.6,247.3,203.3z M248.8,196.3c0,0.1,0.1,0.6,0.1,0.9c2.6-3.1,6.6-4.1,6.6-8.7V188
		C253.8,189.7,248.8,193.4,248.8,196.3z M256.1,183.9c-2.2,2.1-5,4.4-5.9,7.5l5.4-5.4c0.5-0.5,0.5-0.9,0.5-1.4V183.9z M250.4,223.9
		c1.1,0,2-0.1,2-1.4c0-0.1-0.1-0.7-0.1-0.9C252.1,221.8,250.4,222.9,250.4,223.9z M251.4,186c3-2.5,5.4-3.5,5.4-7.5
		C254.4,180.9,251.6,182.5,251.4,186z M253.1,178.3c0,0.2,0,0.5,0.2,0.6c3.2-1.6,4-1.5,4-5.7C256.9,174.6,253.1,176.8,253.1,178.3z
		 M255.2,171.9c0,0.5-0.5,1.4-0.5,1.6h0.5c1.4,0,3-2.9,3-4.1c0-0.2-0.1-0.4-0.1-0.5l-1.2-0.9c1.9-1.6,2.1-4.1,2.1-6.6v-5
		L255.2,171.9z M256.4,197.2c0,0.1-0.5,6.5-0.5,7.1h2.1c0.4,0,29.9-1.6,29.9-3.1c-0.2,0-8.2-28.6-10.5-31.4L263,141.2l-2.5,19.1v5.7
		l-0.4,0.7l-2.1,15.1c0,0.5,0.1,1.1,0.1,1.6c0,3.9-1.5,8-1.5,11.8c0,0.5,0.1,1,0.1,1.4L256.4,197.2z M259,154.9c0,0.1,0,0.2,0.2,0.2
		s0.4-0.1,0.4-0.2c0-0.2-0.1-0.5-0.4-0.5C259,154.4,259,154.7,259,154.9z M288.9,205.1c0,2.5,0.4,5.9,1.2,8.4
		c0.4-0.4,2.1-1.2,2.1-2.1c0-2.1-2.4-6-3-7.5c-0.4,0.1-0.4,0.2-0.4,0.6L288.9,205.1L288.9,205.1z M290.8,216.7l3-2
		c-0.1-1-0.7-1.7-1.2-1.7C291.5,214.2,290.8,214.9,290.8,216.7z M292.1,220.4c1.5,0,2.4-1.6,3.7-2l-1.7-3.4c-1,1.5-2.7,3.6-2.7,4.6
		C291.3,220.4,291.6,220.4,292.1,220.4z M292.5,223c1.7,0,4.2-0.6,4.2-1.6c0-0.4,0-1.4-0.6-1.4C295.5,220.2,292.5,222,292.5,223z"/>
	<linearGradient id="SVGID_3_" gradientUnits="userSpaceOnUse" x1="341.4" y1="139.2" x2="341.4" y2="226">
		<stop  offset="0" style="stop-color:#D073AE"/>
		<stop  offset="1" style="stop-color:#5FBFE7"/>
	</linearGradient>
	<path class="st10" d="M318,219.9c0-10.5,0.9-21,0.9-31.6V180c0-4,0.7-22.2,0.9-26.2c-0.6-2.7-0.6-5.1-0.6-9.6c0-2,0.4-3.9,2.2-3.9
		c0.7,0,1.5,0.1,1.9,0.1c4.1,0,6-1.2,10.1-1.2c10,0,23.3,7.1,23.3,18.7c0,12.7-8.4,22.1-17.2,29.9c0,2,7.2,8.1,9.2,10.9
		c2.4,3.2,5.2,9,7.6,10.1c0.6,0,1.2,0,1.2,0.4c0,0.2-0.1,0.4-0.1,0.6c0,1.4,7.4,6.6,7.4,9c0,3-6.9,3.1-11.6,3.1
		c-4.1,0-4.2-5-6.1-7.6c-5.6-10.1-8.6-22.6-10.9-24.8c-1,0-7.2,2.2-7.2,3.4v6.7l0.5,1.2c0,1.2,0.2,6.1,0.4,7.1l0.7,4.7
		c0.4,0.6,1.4,0.2,1.4,1c0,0.2-0.5,0.9-0.9,1v2.9c0.1,0,0.2,0.1,0.4,0.1c0.1,0,1.5-0.6,1.7-0.9c0,2.1-1.4,2-1.4,4
		c0,1.7,0.5,1.4,1,2.2c0,0.4-0.7,1.4-0.9,1.4c-4,0.1-7.7,1.7-11.6,1.7c-0.9,0-1.5,0-2.2-0.6C318.2,224.8,318,220.8,318,219.9z
		 M319.8,207.2h0.5c1.1-1.4,7-6.2,7-6.2l-0.2-3.4C324.6,198,319.8,204.7,319.8,207.2z M320.3,216.4c0.6-0.6,3.5-3.5,4.1-4.2
		c1.2-1.1,4.1-2.5,4.1-4.6c-1.6,0-6.2,4.6-7.9,6.2c-0.6,0-0.9,1.1-0.9,1.7C319.8,215.9,319.8,216.3,320.3,216.4z M320.3,222.7
		l0.9-0.4l6.1-5.9c1.7-1.7,1.7-2.6,1.7-5.1v-0.5c-1.1,0-5.9,4.1-8.4,7.2l-0.9,0.5v0.9C319.8,220.5,319.8,221.4,320.3,222.7z
		 M320.2,200.5c0,0.2,0,1.5,0.1,1.6c1.2-2.6,6.7-5.1,6.7-7.5c0-0.7-0.5-0.9-1.1-0.9C323.5,193.7,320.2,198.5,320.2,200.5z
		 M320.2,210.9c0,0.1,0.1,0.7,0.1,0.9c0.6-1.2,7.6-5.4,7.6-6.5c0-0.9-0.1-1.4-0.6-2.4C325.3,204,320.2,208.4,320.2,210.9z
		 M321.2,178.6c0.4-0.6,1.9-1.5,3.6-2.5l-0.4-3.4c-2.4,1.4-3.9,3.1-3.9,5.1c0,0.2,0,0.4,0.1,0.4L321.2,178.6z M320.5,188.7h0.6
		c1.1-1.1,4.6-2.9,4.6-5.1c0-0.2-0.1-1.1-0.1-1.1C323.5,183.9,320.5,185.9,320.5,188.7z M320.5,194.6c0,0.4,0.1,1.7,0.1,2.1
		c1.5-2.7,5.9-5.5,5.9-8c0-0.7-0.1-1.5-0.6-2.1C322.5,189.5,320.5,190.6,320.5,194.6z M323.1,168.5c-1.1,0-2.2,2.6-2.2,3.4
		c0,0.2,0.1,1.1,0.2,1.4c1.7-1,3.4-2.5,3.4-4.7L323.1,168.5L323.1,168.5z M321,182.9c0,0.2,0.1,1.1,0.1,1.2c0.7-0.6,4.2-2.4,4.2-4.1
		c0-1.1-0.2-1.7-0.6-3C323,178.5,321,180.3,321,182.9z M321.4,168.2l2.2-2.1c-0.7-2.1-0.9-9.1-2.2-13.8c0.1,1.7,0.1,3.5,0.1,5.2
		c0,3.5-0.1,7-0.4,10.4L321.4,168.2z M321.4,223.9c4,0,4.9-1.4,7.6-3.7c0.4-0.4,0.5-0.2,0.5-0.5c0-1.1-0.1-1.7-0.5-2.9
		C325,220.9,323.3,222.9,321.4,223.9z M328.6,190.4c13.8-5,26.1-16.1,26.1-32.2c0-11.7-12.3-16.5-22.1-16.5h-0.9
		c-3.5,0-5.9,0-9.5,1.2c0,3.2,1.5,6.6,1.5,9.9c0,0.2-0.1,0.7-0.1,1l2.5,19L328.6,190.4z M341.9,195.8c0.1,0,0.6-0.1,1-0.5
		c-0.6-0.9-2.5-2.9-2.5-2.7C340.4,194.2,341.5,195.8,341.9,195.8z M343.7,201.3l2-2.1c-0.1-0.2-1.5-2.1-1.6-2c0,0-0.1-0.1-0.4-0.1
		c-0.4,0-0.9,0.1-1.6,0.9C342.6,199.1,343,201.3,343.7,201.3z M345.3,206.3c0.7-0.5,2.9-2.1,3.4-3c-0.1-0.4-0.9-2.5-1.9-2.5
		l-2.2,2.1c0,0-0.1,0.4-0.1,0.6C344.5,204.5,344.9,205.5,345.3,206.3z M349.6,214.3c1.4-0.4,3.7-3.1,4.6-3.9c-0.1-0.2-0.6-1.2-1.2-2
		c-1.6,0-2.7,1.5-4.6,1.5c0-1.4,3.2-2.4,3.2-3.1l-1.7-2.4l-3.6,3.7C346.2,209.6,348.7,213.2,349.6,214.3z M353.3,220.3
		c0.7,0,1-0.6,1.2-1.4l5.1-2.9c-0.1-0.1-1.4-2.2-1.7-2.2c-1.2,0-3.9,3.4-5.5,3.4c0-2.5,2.9-2.6,4.2-4.5c0-0.4-0.9-1.2-1.2-1.4
		c-0.2,0.1-3.5,2.7-5,4.2C351.3,217.3,352.5,220.3,353.3,220.3z M357.4,219.4h2.2c1,0,1.9,0,2.9-0.5c-0.2-0.5-1.6-1.7-1.9-1.7
		C360.1,217.2,358.3,218.9,357.4,219.4z"/>
	<linearGradient id="SVGID_4_" gradientUnits="userSpaceOnUse" x1="389.95" y1="142.1" x2="389.95" y2="226.8">
		<stop  offset="0" style="stop-color:#D073AE"/>
		<stop  offset="1" style="stop-color:#5FBFE7"/>
	</linearGradient>
	<path class="st11" d="M383,223.7c-0.1-2.5-0.5-14.5-0.5-17.1c0-20.8,1-41.4,1-62.1h-1.9c-1.7,0-8.6,7.7-11.6,10.5
		c-0.1,0-0.2,0.1-0.4,0.1c-0.2,0-0.6,0-0.9-0.5v-0.9c0-2.7-0.7-5.2-0.7-8c0-3.1,3.2-3.1,5.7-3.1c1.6,0,3.1,0.1,4.5,0.1
		c3.7,0,6.5-0.6,16.7-0.6c5,0,13.1,0.4,14.2,0.6c0,0,0.5-0.1,1.1-0.1c0.5,0,1.6,2.1,1.7,2.2v0.5c0-0.6-2.7,8.4-3.4,8.4
		c-2.1,0-4.1-3.9-5.5-5c-2.1-1.5-4-2.4-5.4-4.2c-0.5,0-3.2-0.1-3.9-0.1h-1.5c-1.4,0-3,0-4.4,0.5v0.6c0,6.2,1.5,12.3,2.1,18.3
		c0.9,9.9,1.6,17.3,2.9,29.1v0.9c0.9,10.7,2.7,25.4,2.7,29.4c0,2.4-4.9,1.9-6.4,2.2c-1,0.1-1.2,1.4-2.2,1.4c-0.7,0-0.4-1.4-1.4-1.4
		H384c-0.6,0-1.4,0-1.5-0.7C382.5,224.4,382.8,223.8,383,223.7z M370.4,145.3l0.4,3.4l3.7-3.9c-0.4,0-1.4-0.1-1.6-0.1
		C371.4,144.7,370.4,145,370.4,145.3z M371,151.2c1.4,0,5.2-4.4,6.6-6.4l-0.4-0.1c-0.5,0-0.9,0.1-1.1,0.6l-4.5,5h-1.2
		C370.4,150.8,371,151.2,371,151.2z M384.4,207.3h0.6c1.7-2.5,4.5-5.5,6.4-7.5v-3.5C389.7,198,384.4,204.3,384.4,207.3z
		 M384.5,201.6h0.5c0.7,0,2.6-3.2,3.1-3.9c1.6-1.7,3-2.9,3-4.6c0-1.2-0.2-2.6-0.6-2.6c-0.6,0-3.7,5.6-5.5,7.2L384.5,201.6z
		 M384.5,213.6h0.5c1.7-2.4,7.2-7.4,7.2-9.2c0-0.5,0-2.7-0.4-2.7h-0.5l-6.9,8.9L384.5,213.6L384.5,213.6z M387.4,213.1
		c-0.7,1.2-2.9,4-2.9,4.1v3.4c0.6-0.4,8.1-8.6,8.1-9.7v-3.6C390.7,207.2,387.8,212.6,387.4,213.1z M384.9,223.5c0.6,0,8.6-1.4,8.6-6
		c0-0.7-0.4-4-0.6-4C391.2,214.3,384.9,221.8,384.9,223.5z M385.3,174.6c0.2-0.5,3.9-2.9,3.9-4.7c0-0.2-0.2-2.6-0.7-2.6
		c-1.1,0-3.4,4.6-3.4,7L385.3,174.6z M385,180.1c0,0.4,0,0.9,0.4,0.9l4.1-5.4v-0.9c0-0.7,0-1.5-0.5-2.2c-1.4,1.4-4,4.9-4,6.9V180.1z
		 M385.4,188.1c1.2-2,4.5-4.7,4.5-7.4c0-0.9,0-1.6-0.4-2.5c-1.5,2-2.7,4.2-4.5,5.7L385.4,188.1z M385,195.1c0.2-0.7,1.9-3,2.4-3.6
		c0.7-1,3.1-2,3.1-3.1c0-2.5-0.4-3.5-0.6-3.9c-2.1,1.6-3,4.9-4.9,6.6V195.1z M385.9,154.9c0.6-0.5,1-1.4,1-2.4c0-2.6,0-5.5-0.7-8.1
		l-0.2,0.4c-0.2,0-0.6,7.7-0.6,7.4C385.3,153.3,385.3,153.9,385.9,154.9z M385.3,166.7c0,0.2,0.1,1.2,0.4,1.2c1.4-1.4,2.7-2.7,2.7-5
		c0-0.2-0.1-1.1-0.2-1.2l-0.4-0.5C386.1,162.4,385.3,164.5,385.3,166.7z M385.8,159.7c0,0.2,0.1,1.2,0.1,1.5
		c0.2-0.2,1.7-1.9,1.9-2.1V158c0-0.7,0-1.6-0.4-2.1C386.1,156.7,385.8,158.3,385.8,159.7z M392.1,222.8l1.9-0.4c0-0.5,0-1.2-0.5-1.4
		C392.9,221.7,392.1,222.5,392.1,222.8z M403.6,146.2c0,0,1.7-0.9,2.4-1.7h-5.2C401.3,145.2,403.5,146.2,403.6,146.2z M406.8,149.2
		c0.4-1.9,1.9-3.2,3.5-3.9c0-0.5-0.5-0.6-0.7-0.6c-1.4,0-3.7,1.2-4.4,2.9C405.2,148.5,406.5,148.7,406.8,149.2z M407.8,150.2
		c0.1,0,0.5-0.7,0.5-1l-1.2,0.5C407.2,149.8,407.6,150.2,407.8,150.2z"/>
</g>
<g>
	<path class="st12" d="M31.2,250.4c-1.1,1.6-2.6,2.4-4.6,2.4c-1.4,0-2.6-0.5-3.7-1.5c-1.3-1.2-1.9-2.8-1.9-4.7c0-1.6,0.5-3,1.4-4.1
		c1.1-1.4,2.5-2,4.2-2c2,0,3.6,0.8,4.6,2.3l-0.4,0.3c-0.9-1.4-2.3-2-4.2-2.1c-1.2,0-2.3,0.4-3.3,1.3c-1.2,1.1-1.8,2.6-1.8,4.3
		c0,1.4,0.4,2.6,1.2,3.7c1,1.3,2.3,1.9,3.9,1.9c1.7,0,3.2-0.8,4.2-2.2L31.2,250.4z"/>
	<path class="st12" d="M61.1,242.4c1.1-1.3,2.4-2,3.9-2c0.6,0,1.1,0.1,1.7,0.3c1.3,0.6,2.3,1.6,2.9,3.1v-3.2v-0.3h0.5v0.3v5.9v5.9
		v0.3h-0.5v-0.3v-3.2c-0.2,0.5-0.5,1-0.8,1.5c-1,1.3-2.3,2-3.8,2c-1.3,0-2.5-0.5-3.5-1.5c-1.3-1.2-1.9-2.8-1.9-4.7
		C59.7,245,60.1,243.6,61.1,242.4z M61.4,250.4c1,1.3,2.2,1.9,3.6,1.9c1.1,0,2.1-0.4,2.9-1.3c1.1-1.1,1.7-2.6,1.7-4.4
		c0-1.4-0.4-2.6-1.2-3.7c-0.9-1.3-2.1-1.9-3.5-1.9c-1.1,0-2.2,0.4-3.1,1.3c-1.2,1.1-1.8,2.6-1.8,4.4C60.2,248,60.6,249.3,61.4,250.4
		z"/>
	<path class="st12" d="M101.1,246.9v5.7v0.3h-0.5v-0.3v-5.7v-0.5v-11.1V235h0.5v0.3v11.1h1.8l6.5-5.8l0.1-0.1h0.8l-0.5,0.4l-6.4,5.7
		l6.4,5.7l0.5,0.4h-0.8l-0.1-0.1l-6.5-5.8h-1.8V246.9z"/>
	<path class="st12" d="M148.9,250.3c-1.2,1.7-2.9,2.5-4.9,2.5c-1.4,0-2.6-0.5-3.7-1.5c-1.3-1.2-2-2.8-2-4.7c0-1.6,0.5-3,1.5-4.1
		c1.1-1.4,2.5-2,4.2-2c1.4,0,2.6,0.5,3.7,1.5c1.3,1.2,2,2.8,2,4.7v0.3h-0.3h-10.5c0.1,1.3,0.5,2.5,1.2,3.4c1,1.3,2.3,2,3.9,2
		c1.9,0,3.4-0.8,4.5-2.3L148.9,250.3z M149.1,246.4c0-1.3-0.4-2.5-1.3-3.5c-1-1.3-2.3-1.9-3.9-1.9c-1.2,0-2.2,0.4-3.2,1.2
		c-1.2,1.1-1.9,2.5-2,4.2H149.1z"/>
	<path class="st12" d="M224,243.6c0-0.5-0.2-1-0.7-1.5c-0.8-0.8-1.8-1.2-3.1-1.2c-0.8,0-1.6,0.2-2.2,0.5c-1,0.5-1.6,1.3-1.6,2.2
		c0,0.4,0.2,0.8,0.6,1.2c0.5,0.4,1.6,0.9,3.4,1.5c1,0.3,1.7,0.6,2.1,0.7c1.6,0.7,2.4,1.5,2.4,2.5c0,0.6-0.3,1.2-0.8,1.8
		c-0.9,0.9-2.3,1.4-4,1.4c-1.2,0-2.2-0.2-3.1-0.7c-1.1-0.6-1.7-1.4-1.7-2.4h0.5c0,0.5,0.3,1,0.7,1.5c0.9,0.8,2,1.2,3.5,1.2
		c1,0,1.8-0.2,2.6-0.6c1.1-0.5,1.7-1.2,1.7-2.1c0-0.4-0.2-0.8-0.6-1.2c-0.5-0.4-1.6-0.9-3.4-1.5c-1-0.3-1.7-0.6-2.2-0.8
		c-1.6-0.7-2.4-1.5-2.4-2.5c0-0.6,0.2-1.2,0.7-1.8c0.9-0.9,2-1.4,3.6-1.4c1,0,1.9,0.2,2.7,0.7c1.1,0.6,1.6,1.5,1.6,2.5L224,243.6
		L224,243.6z"/>
	<path class="st12" d="M255.6,249.6c0,0.2,0,0.4,0.1,0.5c0.3,1.5,1.5,2.2,3.6,2.2h0.3v0.5h-0.3c-0.5,0-1,0-1.4-0.1
		c-1.8-0.4-2.7-1.4-2.8-3.1V241h-2h-0.3v-0.5h0.3h2v-2.7v-0.3h0.5v0.3v2.7h3.7h0.3v0.5h-0.3h-3.7L255.6,249.6L255.6,249.6z"/>
	<path class="st12" d="M287.9,240.5h0.6v0.3v7.6c0,0.9,0.3,1.7,0.9,2.4c0.9,1,2.1,1.6,3.6,1.6c1,0,2-0.3,2.8-0.9
		c1.1-0.8,1.7-1.8,1.7-3.1v-7.6v-0.2h0.6v0.3v7.6c0,1-0.4,2-1.1,2.8c-1,1.1-2.3,1.7-3.9,1.7c-1.2,0-2.3-0.4-3.2-1.1
		c-1.2-0.9-1.8-2.1-1.8-3.4v-7.6v-0.4L287.9,240.5L287.9,240.5z"/>
	<path class="st12" d="M328.3,242.4c1.1-1.3,2.5-2,4.2-2c0.7,0,1.4,0.1,2.1,0.4c1.4,0.6,2.5,1.7,3.1,3.2v-8.7V235h0.5v0.3v11.3v5.9
		v0.3h-0.5v-0.3v-3.3c-0.2,0.5-0.6,1.1-1,1.5c-1.1,1.4-2.5,2-4.2,2c-1.4,0-2.6-0.5-3.7-1.5c-1.3-1.2-1.9-2.8-1.9-4.7
		C326.8,245,327.3,243.6,328.3,242.4z M328.6,250.4c1,1.3,2.3,1.9,3.9,1.9c1.3,0,2.4-0.4,3.3-1.3c1.2-1.1,1.8-2.6,1.8-4.3
		c0-1.4-0.4-2.6-1.3-3.7c-1-1.3-2.3-1.9-3.9-1.9c-1.2,0-2.3,0.4-3.3,1.3c-1.2,1.1-1.8,2.6-1.8,4.3
		C327.3,248,327.7,249.3,328.6,250.4z"/>
	<path class="st12" d="M368.8,238.1v-0.5h0.3l0,0h0.3v0.5h-0.3l0,0H368.8z M368.8,240.4h0.5v0.3v11.8v0.3h-0.5v-0.3v-11.8V240.4z"/>
	<path class="st12" d="M400.5,242.4c1.1-1.3,2.5-2,4.2-2c1.4,0,2.6,0.5,3.7,1.5c1.3,1.2,2,2.8,2,4.7c0,1.6-0.5,3-1.5,4.1
		c-1.1,1.4-2.5,2-4.2,2c-1.4,0-2.6-0.5-3.7-1.5c-1.3-1.2-1.9-2.8-1.9-4.7C399,245,399.5,243.6,400.5,242.4z M400.8,250.4
		c1,1.3,2.3,1.9,3.9,1.9c1.3,0,2.4-0.4,3.3-1.3c1.2-1.1,1.8-2.6,1.8-4.3c0-1.4-0.4-2.6-1.3-3.7c-1-1.3-2.3-1.9-3.9-1.9
		c-1.2,0-2.3,0.4-3.3,1.3c-1.2,1.1-1.8,2.6-1.8,4.3C399.5,248,400,249.3,400.8,250.4z"/>
</g>
</svg>
